<svg width="48" height="40" viewBox="0 0 48 40" fill="none" xmlns="http://www.w3.org/2000/svg">
<path d="M48 5.114C46.234 5.898 44.336 6.426 42.344 6.664C44.378 5.446 45.94 3.516 46.674 1.216C44.772 2.344 42.664 3.164 40.42 3.606C38.626 1.692 36.064 0.496002 33.232 0.496002C26.874 0.496002 22.202 6.428 23.638 12.586C15.456 12.176 8.2 8.256 3.342 2.298C0.762 6.724 2.004 12.514 6.388 15.446C4.776 15.394 3.256 14.952 1.93 14.214C1.822 18.776 5.092 23.044 9.828 23.994C8.442 24.37 6.924 24.458 5.38 24.162C6.632 28.074 10.268 30.92 14.58 31C10.44 34.246 5.224 35.696 0 35.08C4.358 37.874 9.536 39.504 15.096 39.504C33.38 39.504 43.71 24.062 43.086 10.212C45.01 8.822 46.68 7.088 48 5.114V5.114Z" fill="#8D4343"/>
</svg>
